<?xml version="1.0" encoding="utf-8"?>
<!-- Generator: Adobe Illustrator 16.0.4, SVG Export Plug-In . SVG Version: 6.00 Build 0)  -->
<!DOCTYPE svg PUBLIC "-//W3C//DTD SVG 1.1//EN" "http://www.w3.org/Graphics/SVG/1.1/DTD/svg11.dtd">
<svg version="1.1" id="Capa_1" xmlns="http://www.w3.org/2000/svg" xmlns:xlink="http://www.w3.org/1999/xlink" x="0px" y="0px"
	 width="792px" height="612px" viewBox="0 0 792 612" enable-background="new 0 0 792 612" xml:space="preserve">
<g>
	<g>
		<g>
			<path fill="#F9D714" d="M132.347,268.36l0.745,0.355c14.3,6.795,23.54,21.468,23.54,37.371c0,22.768-18.348,41.293-40.891,41.293
				c-1.781,0-3.602-0.127-5.416-0.379l6.709,15.331l-15.714,7.213c4.735,1.088,9.572,1.649,14.421,1.649
				c35.555,0,64.477-29.208,64.477-65.107c0-25.561-14.964-48.872-38.126-59.394l-0.693-0.32l2.994-7.271l-26.305,12.068
				l7.167,16.367l0,0l3.83,8.747L132.347,268.36z"/>
			<path fill="#108D35" d="M98.655,344.47l-0.727-0.319c-15.233-6.458-25.074-21.411-25.074-38.064
				c0-22.761,18.268-39.086,40.812-39.086c2.29,0,5.072,0.939,7.333,1.333l-6.979-17.955l15.903-7.299
				c-5.29-1.391-10.728-2.095-16.183-2.095c-35.551,0-64.478,29.208-64.478,65.102c0,26.293,15.554,49.867,39.621,60.07l0.722,0.297
				l-2.943,7.145l26.305-12.068l-10.997-25.108L98.655,344.47z"/>
		</g>
		<path fill="#108D35" d="M143.786,306.349c0,15.205-12.199,27.52-27.255,27.52s-27.261-12.314-27.261-27.52
			c0-15.199,12.205-27.519,27.261-27.519S143.786,291.15,143.786,306.349z"/>
	</g>
	<path fill="#108D35" d="M327.453,266.095c-31.477-0.925-46.874,18.391-46.874,40.538c0,14.381,7.438,29.721,21.65,37.188
		c4.612,2.437,9.995,3.609,15.728,4.196c1.235,0.338,2.542,0.529,3.916,0.529c1.868,0,3.73-0.011,5.581-0.033
		c1.856,0.022,3.719,0.033,5.586,0.033c1.375,0,2.681-0.191,3.916-0.529c5.732-0.587,11.116-1.76,15.728-4.196
		c14.212-7.467,21.65-22.807,21.65-37.188C374.333,284.486,358.937,265.17,327.453,266.095z M326.481,332.835
		c-18.451,0.519-24.519-11.73-24.519-26.202c0-14.471,7.056-26.771,24.519-26.201c15.923,0.53,24.519,11.73,24.519,26.201
		C351,321.104,341.907,332.384,326.481,332.835z"/>
	<path fill="#108D35" d="M621.205,347h24.605l-31.478-35.75c8.578-3.176,16.074-10.421,16-22.542
		C630.164,265.846,598.979,267,598.979,267H560v-0.729v45.415V347h21v-34.5l11.083,0.75L621.205,347z M581,281h16.418
		c0,0,12.191,1.504,12.248,9.525c0.061,8.436-12.521,10.475-12.521,10.475H581V281z"/>
	<path fill="#108D35" d="M243.597,332.902c-17.264,0.098-27.894-11.669-27.894-26.071c0-14.398,9.434-28.4,29.297-27.831
		c8.104,0.237,15.359,2.838,20,6.667l7.663-13.215c-7.422-3.925-16.653-6.289-27.261-6.813
		c-31.762-1.568-50.869,18.295-50.869,41.192c0,14.312,7.359,29.568,21.17,37.012c8.285,4.467,18.961,4.703,29.699,4.703
		c11.764,0,21.819-3.529,29.602-9.26L267,324.334C262.218,329.038,252.409,332.853,243.597,332.902z"/>
	<path fill="#108D35" d="M514.5,304l-0.167,12h15.208l-0.104,13.482c0,0-3.678,3.601-16.469,3.601
		c-22.535,0-30.133-11.808-30.133-26.21c0-14.398,8.466-26.663,29.796-26.093c10.196,0.276,18.465,2.776,23.677,7.637l9.109-14.307
		c-7.906-4.793-17.993-7.909-29.745-8.468c-32.936-1.568-52.759,18.294-52.759,41.191c0,14.312,7.626,29.568,21.952,37.011
		c8.583,4.467,19.648,4.703,30.781,4.703c4.443,0,10.373-0.485,14.32-1.343c7.828-1.736,14.032-2.871,21.032-7.537V304H514.5z"/>
	<path fill="#F9D714" d="M430.419,332.838c0,6.587-5.436,11.934-12.137,11.934c-6.698,0-12.13-5.347-12.13-11.934
		s5.432-11.922,12.13-11.922C424.983,320.916,430.419,326.251,430.419,332.838z"/>
	<polygon fill="#108D35" points="423.134,266 412.474,266 368.322,347 393.108,347 417.666,295.5 442.296,347 467.088,347 	"/>
	<path fill="#F9D714" d="M709.419,332.838c0,6.587-5.436,11.934-12.137,11.934c-6.698,0-12.13-5.347-12.13-11.934
		s5.432-11.922,12.13-11.922C703.983,320.916,709.419,326.251,709.419,332.838z"/>
	<polygon fill="#108D35" points="702.134,266 691.474,266 647.322,347 672.107,347 696.666,295.5 721.296,347 746.088,347 	"/>
</g>
</svg>
