<svg viewBox="-95 0 512 512" xmlns="http://www.w3.org/2000/svg"><path d="m160.78125 368.960938c-.648438 0-1.308594-.070313-1.949219-.199219-.640625-.121094-1.269531-.320313-1.867187-.570313-.613282-.25-1.191406-.5625-1.730469-.921875-.550781-.359375-1.0625-.78125-1.519531-1.238281-.460938-.460938-.882813-.972656-1.242188-1.519531-.371094-.542969-.667968-1.121094-.917968-1.730469-.25-.601562-.453126-1.230469-.570313-1.871094-.132813-.640625-.199219-1.300781-.199219-1.949218 0-.652344.066406-1.3125.199219-1.949219.117187-.640625.320313-1.273438.570313-1.871094.25-.609375.546874-1.191406.917968-1.730469.359375-.550781.78125-1.058594 1.242188-1.519531.457031-.460937.96875-.878906 1.519531-1.25.539063-.359375 1.117187-.660156 1.730469-.910156.597656-.25 1.226562-.449219 1.867187-.570313 1.289063-.261718 2.609375-.261718 3.902344 0 .636719.121094 1.269531.320313 1.878906.570313.601563.25 1.179688.550781 1.71875.910156.550781.371094 1.0625.789063 1.519531 1.25.460938.460937.882813.96875 1.242188 1.519531.359375.539063.667969 1.121094.917969 1.730469.25.597656.453125 1.230469.582031 1.871094.128906.636719.1875 1.296875.1875 1.949219 0 .648437-.058594 1.308593-.1875 1.949218s-.332031 1.269532-.582031 1.871094c-.25.609375-.558594 1.1875-.917969 1.730469-.359375.546875-.78125 1.058593-1.242188 1.519531-.457031.457031-.96875.878906-1.519531 1.238281-.539062.359375-1.117187.671875-1.71875.921875-.609375.25-1.242187.449219-1.878906.570313-.640625.128906-1.300781.199219-1.953125.199219zm0 0"/><path d="m256.734375 312.257812h-52.765625v-24.546874c52.554688-17.988282 90.441406-67.855469 90.441406-126.40625v-.402344c0-.753906-.085937-1.492188-.242187-2.199219-.054688-2.75-.410157-44.699219-.410157-44.699219 0-30.546875-10.519531-57.175781-30.417968-77.003906-23.953125-23.875-60.347656-37-102.542969-37-.234375 0-.46875 0-.703125 0-36.558594.128906-69.636719 10.582031-93.132812 29.441406-25.898438 20.78125-39.585938 50.484375-39.585938 85.898438v35.300781c0 .476563.03125.949219.097656 1.410156-.210937 3.078125-.316406 6.179688-.316406 9.253907 0 58.546874 37.886719 108.417968 90.441406 126.40625v24.546874h-52.765625c-35.746093 0-64.832031 29.085938-64.832031 64.832032v124.910156c0 5.523438 4.476562 10 10 10h301.566406c5.523438 0 10-4.476562 10-10v-124.910156c0-35.746094-29.085937-64.832032-64.832031-64.832032zm-209.359375-196.917968c0-70.082032 60.757812-95.160156 112.789062-95.339844h.636719c36.859375 0 68.246094 11.058594 88.425781 31.167969 16.277344 16.222656 24.53125 37.363281 24.53125 62.835937v34.398438c-18.574218-6.296875-33.039062-22.3125-36.847656-42.007813-.664062-3.433593-3.074218-6.273437-6.359375-7.484375-61.355469-22.601562-146.085937-28.335937-149.664062-28.570312-.21875-.011719-.433594-.019532-.648438-.019532-3.121093 0-6.078125 1.457032-7.972656 3.964844-2.03125 2.679688-2.578125 6.199219-1.457031 9.367188.101562.285156 9.722656 28.832031-1.660156 44.925781-4.339844 6.140625-11.640626 9.957031-21.773438 11.402344zm-.21875 45.964844c0-.382813 0-.765626.003906-1.148438 17.300782-1.78125 30.164063-8.496094 38.320313-20.03125 10.828125-15.316406 10.054687-35.300781 7.769531-48.65625 25.453125 2.472656 81.519531 9.289062 125.351562 24.414062 3.710938 13.539063 11.082032 25.664063 21.53125 35.332032 9.710938 8.984375 21.328126 15.148437 34 18.097656-4.125 58.898438-53.390624 105.554688-113.351562 105.554688-62.652344 0-113.625-50.945313-113.625-113.5625zm90.441406 131.550781c7.53125 1.320312 15.28125 2.011719 23.183594 2.011719 7.90625 0 15.652344-.6875 23.1875-2.011719v19.402343h-46.371094zm-117.597656 84.234375c0-24.71875 20.113281-44.832032 44.832031-44.832032h37.554688v159.742188h-82.386719zm150.78125 114.910156v-95.753906c0-5.523438-4.476562-10-10-10-5.519531 0-10 4.476562-10 10v95.753906h-28.394531v-159.742188h76.792969v159.742188zm130.785156 0h-82.386718v-159.742188h37.554687c24.71875 0 44.832031 20.113282 44.832031 44.832032zm0 0"/><path d="m238.757812 438.851562c-5.519531 0-10-4.476562-10-10v-6.644531c0-5.523437 4.480469-10 10-10 5.523438 0 10 4.476563 10 10v6.644531c0 5.523438-4.476562 10-10 10zm0 0"/><path d="m238.757812 480.585938c-5.519531 0-10-4.476563-10-10v-6.640626c0-5.523437 4.480469-10 10-10 5.523438 0 10 4.476563 10 10v6.640626c0 5.523437-4.476562 10-10 10zm0 0"/></svg>