<?xml version="1.0" encoding="utf-8"?>
<!-- Generator: Adobe Illustrator 16.0.4, SVG Export Plug-In . SVG Version: 6.00 Build 0)  -->
<!DOCTYPE svg PUBLIC "-//W3C//DTD SVG 1.1//EN" "http://www.w3.org/Graphics/SVG/1.1/DTD/svg11.dtd">
<svg version="1.1" id="Capa_1" xmlns="http://www.w3.org/2000/svg" xmlns:xlink="http://www.w3.org/1999/xlink" x="0px" y="0px"
	 width="150px" height="150px" viewBox="0 0 150 150" enable-background="new 0 0 150 150" xml:space="preserve">
<g>
	<g>
		<path fill="#00991c" d="M38.748,50.158h31.74c4.381,0,7.934-3.716,7.934-8.22c0-4.501-3.553-8.215-7.934-8.215h-31.74
			c-4.381,0-7.936,3.713-7.936,8.215C30.812,46.442,34.367,50.158,38.748,50.158z"/>
		<path fill="#00991c" d="M38.748,85.999h66.649c4.385,0,7.935-3.717,7.935-8.22c0-4.502-3.55-8.216-7.935-8.216H38.748
			c-4.381,0-7.936,3.713-7.936,8.216C30.812,82.284,34.367,85.999,38.748,85.999z"/>
		<path fill="#00991c" d="M108.569,102.256H38.748c-4.381,0-7.936,3.628-7.936,8.129c0,4.505,3.555,8.132,7.936,8.132h69.824
			c4.381,0,7.937-3.627,7.937-8.132C116.508,105.884,112.952,102.256,108.569,102.256z"/>
		<path fill="#00991c" d="M106.877-0.018H26.403c-9.82,0-17.743,8.178-17.743,18.266v113.415c0,10.087,7.923,18.319,17.743,18.319
			h94.512c9.82,0,17.745-8.232,17.745-18.319V33.44L106.877-0.018z M120.915,136.871H26.403c-2.817,0-5.154-2.313-5.154-5.209
			V18.248c0-2.896,2.336-5.33,5.154-5.33h74.312V27.6c0,6.451,5.09,11.707,11.37,11.772l13.984,0.146v92.144
			C126.069,134.558,123.732,136.871,120.915,136.871z"/>
	</g>
</g>
</svg>
