<?xml version="1.0" encoding="utf-8"?>
<!-- Generator: Adobe Illustrator 16.0.4, SVG Export Plug-In . SVG Version: 6.00 Build 0)  -->
<!DOCTYPE svg PUBLIC "-//W3C//DTD SVG 1.1//EN" "http://www.w3.org/Graphics/SVG/1.1/DTD/svg11.dtd">
<svg version="1.1" id="Capa_1" xmlns="http://www.w3.org/2000/svg" xmlns:xlink="http://www.w3.org/1999/xlink" x="0px" y="0px"
	 width="1400px" height="1400px" viewBox="0 0 1400 1400" enable-background="new 0 0 1400 1400" xml:space="preserve">
<g>
	<g>
		<path opacity="0.7" fill="#FFFFFF" d="M1308,1000.081c0-1.696,0.111-3.402,0.111-5.124L1308,910.544V450.2
			c0-68.265-52.389-117.2-114.799-117.2H224.31c-59.748,0-111.416,45-115.713,109H109v552.802
			C109,1063.066,161.582,1112,223.992,1112h968.893c59.746,0,111.414-45,115.713-109H1308V1000.081z"/>
		<rect x="238" y="332" opacity="0.7" fill="#009245" width="940" height="780"/>
	</g>
	<path fill="#FFFFFF" d="M1309,293.048l-1077.526-0.252C164.741,292.796,109,333.6,109,403.913v58.63l1200,0.253V293.048z"/>
</g>
</svg>
