<?xml version="1.0" encoding="utf-8"?>
<!-- Generator: Adobe Illustrator 16.0.4, SVG Export Plug-In . SVG Version: 6.00 Build 0)  -->
<!DOCTYPE svg PUBLIC "-//W3C//DTD SVG 1.1//EN" "http://www.w3.org/Graphics/SVG/1.1/DTD/svg11.dtd">
<svg version="1.1" id="Capa_1" xmlns="http://www.w3.org/2000/svg" xmlns:xlink="http://www.w3.org/1999/xlink" x="0px" y="0px"
	 width="150px" height="150px" viewBox="0 0 150 150" enable-background="new 0 0 150 150" xml:space="preserve">
<g>
	<g>
		<path fill="#00991c" d="M75.286,79.329c18.573,0,33.631-17.791,33.631-39.736c0-30.433-15.058-39.737-33.631-39.737
			c-18.575,0-33.633,9.304-33.633,39.737C41.655,61.539,56.711,79.329,75.286,79.329z"/>
		<path fill="#00991c" d="M149.551,137.818l-16.967-38.585c-0.776-1.766-2.14-3.229-3.837-4.122l-26.332-13.837
			c-0.582-0.306-1.284-0.246-1.806,0.153c-7.448,5.687-16.205,8.692-25.323,8.692c-9.121,0-17.876-3.006-25.324-8.692
			c-0.524-0.399-1.227-0.459-1.808-0.153L21.823,95.111c-1.696,0.893-3.059,2.355-3.835,4.122L1.02,137.818
			c-1.171,2.66-0.931,5.703,0.641,8.144c1.572,2.438,4.229,3.895,7.111,3.895h133.025c2.883,0,5.542-1.457,7.112-3.895
			C150.481,143.521,150.722,140.478,149.551,137.818z"/>
	</g>
</g>
</svg>
