<?xml version="1.0" encoding="utf-8"?>
<!-- Generator: Adobe Illustrator 16.0.4, SVG Export Plug-In . SVG Version: 6.00 Build 0)  -->
<!DOCTYPE svg PUBLIC "-//W3C//DTD SVG 1.1//EN" "http://www.w3.org/Graphics/SVG/1.1/DTD/svg11.dtd">
<svg version="1.1" id="Capa_1" xmlns="http://www.w3.org/2000/svg" xmlns:xlink="http://www.w3.org/1999/xlink" x="0px" y="0px"
	 width="150px" height="180px" viewBox="0 0 150 180" enable-background="new 0 0 150 180" xml:space="preserve">
<g>
	<g>
		<path fill="#00991c" d="M56.398,77.888c1.594,1.657,3.575,2.709,5.942,3.16V65.32c-0.258-0.101-0.605-0.215-1.042-0.338
			c-0.438-0.125-0.914-0.239-1.428-0.339c-1.903-0.5-3.781-1.091-5.633-1.771c-1.852-0.675-3.51-1.578-4.976-2.708
			c-1.466-1.128-2.637-2.531-3.511-4.213c-0.875-1.681-1.311-3.777-1.311-6.285c0-2.557,0.501-4.816,1.504-6.773
			c1.003-1.955,2.327-3.6,3.974-4.93c1.646-1.328,3.549-2.356,5.709-3.082c2.16-0.728,4.398-1.168,6.713-1.319v-5.794h4.552v5.794
			c2.315,0.25,4.487,0.74,6.52,1.468c2.031,0.73,3.82,1.731,5.363,3.011c1.543,1.277,2.803,2.871,3.781,4.776
			c0.976,1.908,1.543,4.166,1.696,6.774H73.296c-0.052-2.007-0.694-3.712-1.929-5.118c-1.234-1.402-2.727-2.105-4.475-2.105v13.319
			c0.618,0.148,1.247,0.3,1.891,0.452c0.643,0.15,1.324,0.326,2.044,0.527c3.806,1.003,6.739,2.247,8.796,3.725
			c2.058,1.48,3.574,3.023,4.553,4.628c0.976,1.607,1.555,3.212,1.735,4.818c0.18,1.605,0.271,3.034,0.271,4.286
			c0,1.105-0.283,2.497-0.85,4.179c-0.565,1.681-1.581,3.323-3.047,4.929c-1.466,1.607-3.433,3.034-5.902,4.289
			c-2.47,1.253-5.633,2.005-9.491,2.258v6.396H62.34v-6.396c-5.762-0.403-10.263-2.132-13.502-5.192
			c-3.241-3.059-5.12-7.551-5.633-13.473h10.879C54.032,73.975,54.804,76.231,56.398,77.888z M59.793,42.744
			c-0.823,0.251-1.568,0.638-2.237,1.166c-0.669,0.529-1.197,1.179-1.583,1.957c-0.385,0.778-0.579,1.693-0.579,2.746
			c0,1.657,0.541,2.936,1.621,3.838c1.08,0.904,2.854,1.631,5.324,2.182V42.368C61.464,42.368,60.615,42.494,59.793,42.744z
			 M69.785,80.409c1.003-0.326,1.902-0.788,2.701-1.392c0.797-0.604,1.453-1.342,1.968-2.219c0.513-0.879,0.771-1.921,0.771-3.125
			c0-1.957-0.63-3.423-1.891-4.403c-1.261-0.978-3.407-1.868-6.442-2.672v14.449C67.818,80.948,68.782,80.737,69.785,80.409z"/>
	</g>
	<path fill="#00991c" d="M126.668,55.853c-2.547-26.875-22.417-48.127-47.864-54.228c-6.657-1.596-13.698-2.153-20.911-1.504
		C23.122,3.251-2.464,33.291,0.746,67.203c2.544,26.88,22.417,48.13,47.864,54.229c6.657,1.595,13.705,2.149,20.916,1.504
		C104.296,119.8,129.882,89.769,126.668,55.853z M99.16,90.25c-7.869,9.244-18.951,14.935-31.214,16.038
		c-5.151,0.465-10.282,0.099-15.244-1.094c-19.062-4.568-33.08-20.455-34.886-39.537c-1.135-11.947,2.576-23.623,10.438-32.855
		c7.875-9.237,18.956-14.932,31.213-16.035l0.006-0.004c5.146-0.464,10.276-0.093,15.239,1.096
		c19.061,4.568,33.084,20.453,34.889,39.53C110.736,69.347,107.025,81.019,99.16,90.25z"/>
	<polygon fill="#00991c" points="125.41,179.855 90.533,129.318 115.597,112.804 150.475,163.34 	"/>
</g>
</svg>
