<?xml version="1.0" encoding="utf-8"?>
<!-- Generator: Adobe Illustrator 16.0.4, SVG Export Plug-In . SVG Version: 6.00 Build 0)  -->
<!DOCTYPE svg PUBLIC "-//W3C//DTD SVG 1.1//EN" "http://www.w3.org/Graphics/SVG/1.1/DTD/svg11.dtd">
<svg version="1.1" id="Capa_1" xmlns="http://www.w3.org/2000/svg" xmlns:xlink="http://www.w3.org/1999/xlink" x="0px" y="0px"
	 width="32px" height="45px" viewBox="0 0 32 45" enable-background="new 0 0 32 45" xml:space="preserve">
<g>
	<g>
		<path fill="#FFFFFF" d="M0.025,44.948h32.057V31.591H0.025V44.948z M20.998,34.954h4.635v1.385h-3.059v1.472h2.52v1.278h-2.52
			v2.693h-1.576V34.954z M13.631,34.954h2.549c0.562,0,1.057,0.09,1.48,0.27s0.777,0.422,1.062,0.73
			c0.285,0.307,0.5,0.668,0.645,1.082s0.217,0.854,0.217,1.323c0,0.519-0.08,0.987-0.24,1.407s-0.391,0.779-0.688,1.078
			c-0.299,0.298-0.658,0.529-1.078,0.691c-0.42,0.164-0.887,0.246-1.398,0.246h-2.549V34.954z M7.158,34.954h2.914
			c0.326,0,0.627,0.066,0.898,0.201c0.273,0.136,0.508,0.311,0.703,0.529s0.35,0.465,0.461,0.741
			c0.113,0.274,0.168,0.554,0.168,0.837c0,0.301-0.053,0.589-0.158,0.865c-0.105,0.275-0.254,0.521-0.441,0.74
			c-0.189,0.219-0.42,0.392-0.689,0.52c-0.268,0.127-0.566,0.191-0.893,0.191H8.734v2.203H7.158V34.954z"/>
		<path fill="#FFFFFF" d="M10.504,37.964c0.135-0.16,0.203-0.395,0.203-0.701c0-0.161-0.021-0.299-0.062-0.414
			s-0.098-0.211-0.168-0.288s-0.15-0.134-0.24-0.168c-0.09-0.035-0.18-0.054-0.27-0.054H8.734v1.865h1.289
			C10.209,38.204,10.371,38.125,10.504,37.964z"/>
		<polygon fill="#FFFFFF" points="23,1.669 23,9.149 30.48,9.149 		"/>
		<polygon fill="#FFFFFF" points="19.795,12.356 19.795,0.067 0.025,0.067 0.025,28.384 32.082,28.384 32.082,12.356 		"/>
		<path fill="#FFFFFF" d="M16.949,40.243c0.223-0.102,0.41-0.246,0.562-0.428c0.15-0.184,0.266-0.398,0.346-0.645
			s0.119-0.518,0.119-0.812c0-0.302-0.039-0.577-0.119-0.823s-0.197-0.46-0.352-0.641c-0.154-0.178-0.342-0.316-0.566-0.412
			s-0.479-0.145-0.76-0.145h-0.973v4.059h0.973C16.467,40.397,16.725,40.347,16.949,40.243z"/>
	</g>
</g>
</svg>
