<?xml version="1.0" encoding="utf-8"?>
<!-- Generator: Adobe Illustrator 16.0.4, SVG Export Plug-In . SVG Version: 6.00 Build 0)  -->
<!DOCTYPE svg PUBLIC "-//W3C//DTD SVG 1.1//EN" "http://www.w3.org/Graphics/SVG/1.1/DTD/svg11.dtd">
<svg version="1.1" id="Capa_1" xmlns="http://www.w3.org/2000/svg" xmlns:xlink="http://www.w3.org/1999/xlink" x="0px" y="0px"
	 width="82px" height="64px" viewBox="0 1.5 82 64" enable-background="new 0 1.5 82 64" xml:space="preserve">
<g>
	<g>
		<path fill="#F7B71B" d="M27.615,41.355c0.788,0.846,1.769,1.385,2.939,1.613v-8.033c-0.127-0.053-0.299-0.109-0.515-0.172
			c-0.219-0.062-0.453-0.121-0.707-0.174c-0.944-0.256-1.871-0.557-2.788-0.902c-0.918-0.348-1.739-0.808-2.463-1.384
			c-0.726-0.576-1.305-1.293-1.738-2.153c-0.433-0.857-0.65-1.927-0.65-3.208c0-1.306,0.248-2.459,0.743-3.459
			c0.498-1,1.153-1.839,1.967-2.519c0.816-0.678,1.756-1.203,2.826-1.575c1.07-0.371,2.176-0.598,3.323-0.674v-2.958h2.252v2.958
			c1.147,0.128,2.221,0.379,3.227,0.752c1.005,0.37,1.89,0.882,2.654,1.536c0.764,0.652,1.388,1.467,1.871,2.44
			c0.482,0.974,0.763,2.127,0.84,3.461h-5.422c-0.026-1.026-0.343-1.898-0.956-2.615c-0.61-0.717-1.348-1.075-2.214-1.075v6.8
			c0.307,0.079,0.616,0.156,0.936,0.232c0.317,0.078,0.655,0.167,1.012,0.271c1.883,0.511,3.334,1.146,4.353,1.901
			c1.019,0.756,1.77,1.543,2.251,2.365c0.484,0.816,0.772,1.641,0.861,2.457c0.089,0.822,0.134,1.551,0.134,2.191
			c0,0.564-0.141,1.275-0.419,2.135c-0.28,0.859-0.783,1.697-1.509,2.516c-0.726,0.822-1.699,1.553-2.922,2.191
			c-1.222,0.643-2.789,1.025-4.697,1.154v3.268h-2.252V47.43c-2.851-0.205-5.08-1.088-6.683-2.652
			c-1.604-1.562-2.534-3.855-2.788-6.881h5.384C26.444,39.357,26.825,40.512,27.615,41.355z M29.294,23.404
			c-0.406,0.132-0.777,0.329-1.107,0.599c-0.333,0.27-0.593,0.602-0.784,0.999c-0.19,0.398-0.287,0.866-0.287,1.402
			c0,0.847,0.269,1.5,0.803,1.959c0.534,0.464,1.413,0.834,2.634,1.116v-6.265C30.123,23.214,29.702,23.279,29.294,23.404z
			 M34.24,42.645c0.496-0.168,0.942-0.404,1.336-0.713c0.395-0.307,0.719-0.686,0.975-1.135c0.253-0.445,0.381-0.979,0.381-1.594
			c0-1-0.313-1.748-0.936-2.248c-0.624-0.5-1.687-0.955-3.188-1.365v7.381C33.266,42.918,33.744,42.811,34.24,42.645z"/>
	</g>
	<path fill="#F7B71B" d="M33.393,55.861c-2.549,0.236-5.089,0.051-7.544-0.557C16.414,52.971,9.476,44.855,8.582,35.107
		c-0.562-6.1,1.276-11.999,5.167-16.712c3.898-4.718,9.382-8.125,15.449-8.125H29.2c2.546-1.003,5.087-0.117,7.542,0.492
		c9.436,2.333,16.375,10.415,17.269,20.157c0.54,5.883-1.152,11.614-4.759,16.245l4.145,5.889l8.175-12.057
		c0.9-3.455,1.229-7.131,0.884-10.892c-1.261-13.728-11.096-24.583-23.688-27.7c-3.296-0.814-6.779-1.1-10.35-0.769
		C11.208,3.234-1.455,18.578,0.135,35.898c1.258,13.729,11.093,24.58,23.688,27.697c3.295,0.816,6.784,1.1,10.353,0.77
		c4.984-0.465,9.586-2.082,13.571-4.566l-4.906-6.984C39.989,54.5,36.783,55.547,33.393,55.861z"/>
	<polygon fill="#F7B71B" points="75.31,23.357 53.68,56.637 46.142,45.025 42.28,48.709 53.128,64.008 82,30.636 	"/>
</g>
</svg>
