<?xml version="1.0" encoding="utf-8"?>
<!-- Generator: Adobe Illustrator 16.0.4, SVG Export Plug-In . SVG Version: 6.00 Build 0)  -->
<!DOCTYPE svg PUBLIC "-//W3C//DTD SVG 1.1//EN" "http://www.w3.org/Graphics/SVG/1.1/DTD/svg11.dtd">
<svg version="1.1" id="Capa_1" xmlns="http://www.w3.org/2000/svg" xmlns:xlink="http://www.w3.org/1999/xlink" x="0px" y="0px"
	 width="64px" height="64px" viewBox="1.5 1.5 64 64" enable-background="new 1.5 1.5 64 64" xml:space="preserve">
<g>
	<g>
		<path fill="#00991c" d="M17.482,22.915h14.161c1.956,0,3.538-1.584,3.538-3.507c0-1.92-1.583-3.505-3.538-3.505H17.482
			c-1.955,0-3.54,1.584-3.54,3.505C13.943,21.331,15.528,22.915,17.482,22.915z"/>
		<path fill="#00991c" d="M17.482,38.207h29.736c1.956,0,3.54-1.585,3.54-3.507c0-1.921-1.584-3.504-3.54-3.504H17.482
			c-1.955,0-3.54,1.584-3.54,3.504C13.943,36.622,15.528,38.207,17.482,38.207z"/>
		<path fill="#00991c" d="M48.633,45.145H17.482c-1.955,0-3.54,1.549-3.54,3.469c0,1.922,1.585,3.468,3.54,3.468h31.152
			c1.954,0,3.541-1.546,3.541-3.468C52.175,46.693,50.588,45.145,48.633,45.145z"/>
		<path fill="#00991c" d="M47.879,1.507H11.973c-4.381,0-7.917,3.49-7.917,7.793v48.39c0,4.304,3.536,7.817,7.917,7.817h42.167
			c4.381,0,7.916-3.514,7.916-7.817V15.782L47.879,1.507z M54.142,59.914H11.974c-1.256,0-2.301-0.989-2.301-2.225V9.3
			c0-1.235,1.044-2.274,2.301-2.274h33.157v6.265c0,2.752,2.27,4.995,5.072,5.022l6.238,0.062v39.314
			C56.439,58.925,55.396,59.914,54.142,59.914z"/>
	</g>
</g>
</svg>
