<?xml version="1.0" encoding="utf-8"?>
<!-- Generator: Adobe Illustrator 16.0.4, SVG Export Plug-In . SVG Version: 6.00 Build 0)  -->
<!DOCTYPE svg PUBLIC "-//W3C//DTD SVG 1.1//EN" "http://www.w3.org/Graphics/SVG/1.1/DTD/svg11.dtd">
<svg version="1.1" id="Capa_1" xmlns="http://www.w3.org/2000/svg" xmlns:xlink="http://www.w3.org/1999/xlink" x="0px" y="0px"
	 width="64px" height="64px" viewBox="1.5 1.5 64 64" enable-background="new 1.5 1.5 64 64" xml:space="preserve">
<g>
	<g>
		<path fill="#00991c" d="M33.289,35.196c7.926,0,14.35-7.591,14.35-16.954c0-12.986-6.426-16.954-14.35-16.954
			c-7.924,0-14.349,3.968-14.349,16.954C18.94,27.605,25.364,35.196,33.289,35.196z"/>
		<path fill="#00991c" d="M64.974,60.151l-7.238-16.463c-0.331-0.753-0.912-1.378-1.638-1.758l-11.232-5.905
			c-0.251-0.131-0.551-0.104-0.771,0.066c-3.179,2.425-6.915,3.708-10.806,3.708c-3.892,0-7.626-1.284-10.805-3.708
			c-0.223-0.172-0.522-0.197-0.771-0.066l-11.236,5.905c-0.724,0.379-1.305,1.005-1.637,1.758L1.601,60.151
			c-0.499,1.136-0.397,2.435,0.273,3.476c0.673,1.041,1.807,1.662,3.037,1.662h56.756c1.23,0,2.364-0.621,3.034-1.662
			C65.372,62.586,65.473,61.286,64.974,60.151z"/>
	</g>
</g>
</svg>
