<?xml version="1.0" encoding="utf-8"?>
<!-- Generator: Adobe Illustrator 16.0.4, SVG Export Plug-In . SVG Version: 6.00 Build 0)  -->
<!DOCTYPE svg PUBLIC "-//W3C//DTD SVG 1.1//EN" "http://www.w3.org/Graphics/SVG/1.1/DTD/svg11.dtd">
<svg version="1.1" id="Capa_1" xmlns="http://www.w3.org/2000/svg" xmlns:xlink="http://www.w3.org/1999/xlink" x="0px" y="0px"
	 width="64px" height="64px" viewBox="1.5 1.5 64 64" enable-background="new 1.5 1.5 64 64" xml:space="preserve">
<g>
	<g>
		<path fill="#F7B71B" d="M28.218,29.271c0.554,0.588,1.239,0.964,2.061,1.123v-5.593c-0.09-0.035-0.211-0.076-0.362-0.121
			c-0.152-0.043-0.317-0.083-0.496-0.119c-0.66-0.177-1.311-0.388-1.953-0.63c-0.643-0.239-1.217-0.561-1.724-0.962
			c-0.509-0.4-0.915-0.9-1.218-1.497c-0.303-0.598-0.456-1.343-0.456-2.235c0-0.909,0.173-1.713,0.521-2.408
			c0.347-0.696,0.806-1.281,1.378-1.754c0.571-0.472,1.229-0.838,1.979-1.096c0.75-0.259,1.524-0.416,2.328-0.469v-2.06h1.578v2.06
			c0.803,0.09,1.555,0.264,2.26,0.523c0.704,0.258,1.324,0.615,1.859,1.07c0.533,0.455,0.971,1.021,1.311,1.699
			c0.338,0.677,0.536,1.48,0.588,2.409h-3.799c-0.018-0.712-0.242-1.319-0.669-1.819c-0.427-0.5-0.944-0.749-1.551-0.749v4.735
			c0.215,0.053,0.432,0.108,0.657,0.16c0.222,0.055,0.458,0.117,0.708,0.187c1.32,0.357,2.338,0.8,3.05,1.325
			c0.714,0.526,1.239,1.076,1.578,1.645c0.34,0.571,0.539,1.144,0.604,1.715c0.062,0.57,0.093,1.078,0.093,1.523
			c0,0.393-0.099,0.89-0.295,1.485c-0.195,0.598-0.548,1.184-1.058,1.754c-0.507,0.57-1.188,1.079-2.045,1.525
			c-0.855,0.445-1.952,0.714-3.291,0.802v2.274h-1.578v-2.274c-1.998-0.143-3.559-0.757-4.682-1.845s-1.775-2.687-1.953-4.792h3.772
			C27.398,27.878,27.666,28.683,28.218,29.271z M29.396,16.775c-0.286,0.089-0.545,0.228-0.776,0.416
			c-0.231,0.188-0.417,0.418-0.549,0.696c-0.135,0.276-0.201,0.602-0.201,0.976c0,0.589,0.187,1.044,0.562,1.365
			c0.375,0.322,0.99,0.581,1.848,0.777v-4.361C29.974,16.641,29.681,16.687,29.396,16.775z M32.86,30.166
			c0.346-0.114,0.66-0.278,0.937-0.493c0.274-0.216,0.502-0.477,0.681-0.789c0.18-0.313,0.268-0.685,0.268-1.111
			c0-0.697-0.221-1.22-0.657-1.567c-0.437-0.346-1.179-0.665-2.232-0.951v5.138C32.177,30.361,32.512,30.285,32.86,30.166z"/>
	</g>
	<path fill="#F7B71B" d="M52.304,21.436C51.422,11.88,44.533,4.325,35.711,2.155c-2.308-0.566-4.749-0.765-7.249-0.534
		C16.408,2.733,7.54,13.415,8.652,25.473c0.881,9.556,7.771,17.112,16.593,19.281c2.308,0.567,4.75,0.765,7.251,0.535
		C44.55,44.174,53.42,33.496,52.304,21.436z M42.77,33.667c-2.729,3.287-6.57,5.31-10.822,5.703
		c-1.786,0.165-3.564,0.034-5.285-0.389c-6.609-1.626-11.468-7.273-12.095-14.058c-0.393-4.248,0.895-8.542,3.62-11.825
		c2.73-3.284,6.572-4.87,10.821-5.842h0.001c1.783,0,3.562,0.106,5.284,0.53c6.608,1.625,11.471,7.345,12.095,14.126
		C46.782,26.165,45.495,30.386,42.77,33.667z"/>
	<polygon fill="#F7B71B" points="51.869,65.526 39.778,47.559 48.468,41.686 60.558,59.655 	"/>
</g>
</svg>
