<?xml version="1.0" encoding="utf-8"?>
<!-- Generator: Adobe Illustrator 16.0.4, SVG Export Plug-In . SVG Version: 6.00 Build 0)  -->
<!DOCTYPE svg PUBLIC "-//W3C//DTD SVG 1.1//EN" "http://www.w3.org/Graphics/SVG/1.1/DTD/svg11.dtd">
<svg version="1.1" id="Capa_1" xmlns="http://www.w3.org/2000/svg" xmlns:xlink="http://www.w3.org/1999/xlink" x="0px" y="0px"
	 width="180px" height="140px" viewBox="0 0 180 140" enable-background="new 0 0 180 140" xml:space="preserve">
<g>
	<g>
		<path fill="#00991c" d="M60.272,88.424c1.732,1.88,3.883,3.076,6.456,3.589V74.16c-0.281-0.114-0.658-0.244-1.131-0.384
			c-0.477-0.141-0.993-0.271-1.552-0.385c-2.067-0.567-4.107-1.237-6.119-2.008c-2.012-0.77-3.814-1.793-5.406-3.075
			c-1.592-1.28-2.865-2.875-3.814-4.784c-0.951-1.907-1.424-4.286-1.424-7.131c0-2.903,0.544-5.467,1.634-7.689
			c1.09-2.22,2.528-4.086,4.317-5.597c1.788-1.505,3.855-2.673,6.203-3.498c2.347-0.826,4.778-1.326,7.293-1.497v-6.575h4.945v6.575
			c2.515,0.285,4.875,0.841,7.083,1.668c2.207,0.827,4.15,1.962,5.827,3.416c1.676,1.452,3.045,3.259,4.107,5.424
			c1.06,2.163,1.676,4.726,1.843,7.688H78.631c-0.057-2.278-0.755-4.216-2.096-5.811c-1.341-1.591-2.962-2.39-4.861-2.39v15.116
			c0.671,0.171,1.354,0.344,2.054,0.515c0.698,0.173,1.438,0.369,2.221,0.6c4.135,1.137,7.32,2.548,9.557,4.225
			c2.235,1.682,3.883,3.434,4.946,5.255c1.061,1.822,1.689,3.647,1.887,5.468c0.194,1.821,0.293,3.443,0.293,4.867
			c0,1.254-0.309,2.833-0.923,4.742s-1.718,3.773-3.311,5.594c-1.592,1.825-3.73,3.445-6.413,4.868
			c-2.683,1.424-6.12,2.276-10.311,2.563v7.26h-4.945v-7.26c-6.26-0.458-11.15-2.419-14.669-5.893
			c-3.521-3.473-5.562-8.571-6.119-15.292h11.819C57.702,83.983,58.541,86.546,60.272,88.424z M63.961,48.534
			c-0.894,0.287-1.704,0.725-2.43,1.324c-0.727,0.601-1.3,1.339-1.719,2.221c-0.418,0.885-0.628,1.924-0.628,3.117
			c0,1.88,0.587,3.332,1.761,4.356c1.173,1.027,3.101,1.853,5.784,2.478V48.108C65.776,48.108,64.854,48.252,63.961,48.534z
			 M74.816,91.285c1.09-0.369,2.067-0.896,2.934-1.58c0.866-0.684,1.578-1.523,2.138-2.521c0.557-0.993,0.837-2.176,0.837-3.543
			c0-2.221-0.685-3.885-2.054-4.997c-1.37-1.109-3.701-2.121-6.999-3.032v16.401C72.679,91.898,73.727,91.657,74.816,91.285z"/>
	</g>
	<path fill="#00991c" d="M72.819,120.66c-5.596,0.527-11.171,0.111-16.562-1.24c-20.709-5.186-35.938-23.217-37.9-44.877
		c-1.233-13.559,2.799-26.815,11.34-37.291c8.555-10.483,20.594-16.949,33.911-18.203l0.006-0.004
		c5.59-0.524,11.165-0.105,16.556,1.247c20.708,5.186,35.944,23.215,37.905,44.866c1.187,13.081-2.526,25.85-10.442,36.135
		l9.101,13.105l17.942-26.783c1.977-7.68,2.697-15.837,1.938-24.201c-2.767-30.506-24.354-54.626-52-61.552
		c-7.233-1.81-14.882-2.443-22.718-1.704C24.121,3.709-3.675,37.806-0.188,76.297c2.764,30.508,24.354,54.628,52,61.551
		c7.233,1.811,14.89,2.442,22.724,1.709c10.942-1.033,21.044-4.629,29.794-10.148L93.555,113.89
		C87.299,117.633,80.26,119.961,72.819,120.66z"/>
	<polygon fill="#00991c" points="164.832,48.43 117.35,122.383 100.804,96.579 92.328,104.771 116.139,138.767 179.517,64.603 	"/>
</g>
</svg>
