<?xml version="1.0" encoding="utf-8"?>
<!-- Generator: Adobe Illustrator 16.0.4, SVG Export Plug-In . SVG Version: 6.00 Build 0)  -->
<!DOCTYPE svg PUBLIC "-//W3C//DTD SVG 1.1//EN" "http://www.w3.org/Graphics/SVG/1.1/DTD/svg11.dtd">
<svg version="1.1" id="Capa_1" xmlns="http://www.w3.org/2000/svg" xmlns:xlink="http://www.w3.org/1999/xlink" x="0px" y="0px"
	 width="64px" height="64px" viewBox="-1 -1 64 64" enable-background="new -1 -1 64 64" xml:space="preserve">
<g>
	<path fill="#009245" d="M29.428,56.807H5.13V5.193h24.297c1.632,0,2.958-1.45,2.958-3.096S31.06-1,29.428-1H2.715
		c-1.63,0-3.794,1.114-3.794,2.759v57.775C-1.079,61.18,1.084,63,2.715,63h26.713c1.632,0,2.957-1.579,2.957-3.224
		c0.001-0.797-0.308-1.54-0.866-2.105C30.958,57.108,30.218,56.807,29.428,56.807z"/>
	<path fill="#009245" d="M62.058,28.56L48.893,15.081c-1.115-1.141-3.065-1.141-4.189,0c-1.146,1.168-1.146,3.7,0,4.867l8.163,8.988
		H16.078c-1.629,0-2.955,0.409-2.955,2.064c0,1.655,1.325,2.064,2.955,2.064h36.789l-8.163,8.665
		c-1.146,1.172-1.146,3.227,0.002,4.396c0.558,0.569,1.303,0.959,2.092,0.959c0.793,0,1.534-0.277,2.095-0.848l13.162-13.458
		C63.21,31.602,63.209,29.717,62.058,28.56z"/>
</g>
</svg>
